# xmcd CD database file
#
# Track frame offsets:
#	150
#	11243
#	27278
#	39845
#	50655
#	63065
#	82775
#	98123
#	111088
#	125883
#	136560
#	147535
#	158803
#	176803
#	189678
#	200128
#	210815
#	222800
#
# Disc length: 3087 seconds
#
# Revision: 2
# Processed by: cddbd v1.5PL3 Copyright (c) Steve Scherf et al.
# Submitted via: CDex 1.50Beta7
#
DISCID=fb0c0d12
DTITLE=Nat King Cole - The Trouble With Me Is You
DYEAR=1991
DGENRE=Jazz
TTITLE0=Sweet Georgia Brown
TTITLE1=Satchel' Mouth Baby
TTITLE2=The Man On The Little White Keys
TTITLE3=Frim Fram Sauce
TTITLE4=If You Can't Smile And Say Yes
TTITLE5=The Trouble With Me Is You
TTITLE6=This Will Make You Laugh
TTITLE7=I Like To Riff
TTITLE8=Call The Police
TTITLE9=Too Marvelous For Words
TTITLE10=The Man I Love
TTITLE11=On The Sunny Side Of The Street
TTITLE12=Barcarolle
TTITLE13=Besame Mucho
TTITLE14=Wouldn't You Like To Know
TTITLE15=Little Joe From Chicago
TTITLE16=That'll Just About Knock Me Out
TTITLE17=Indiana
EXTD=YEAR: 1991
EXTT0=
EXTT1=
EXTT2=
EXTT3=
EXTT4=
EXTT5=
EXTT6=
EXTT7=
EXTT8=
EXTT9=
EXTT10=
EXTT11=
EXTT12=
EXTT13=
EXTT14=
EXTT15=
EXTT16=
EXTT17=
PLAYORDER=
